<svg width="134" height="16" viewBox="0 0 134 16" fill="none" xmlns="http://www.w3.org/2000/svg">
<g clip-path="url(#clip0)">
<path d="M60.477 6.38827L59.244 7.63304C59.4747 7.28461 59.5992 6.87661 59.6022 6.45872C59.6016 5.91056 59.3915 5.38335 59.015 4.98496L58.9387 4.90863L56.4433 2.34863L53.9537 4.86753L53.8774 4.94386C53.705 5.12465 53.5641 5.33304 53.4605 5.56038C53.3449 5.83141 53.285 6.12295 53.2844 6.41762C53.2846 6.83593 53.4093 7.24471 53.6425 7.59194L52.4271 6.37652C51.3787 7.43148 50.7903 8.85839 50.7903 10.3457C50.7903 11.833 51.3787 13.2599 52.4271 14.3149V14.3149C53.4851 15.3712 54.9189 15.9644 56.4139 15.9644C57.9089 15.9644 59.3428 15.3712 60.4007 14.3149V14.3149C61.4544 13.2697 62.0533 11.8513 62.0676 10.3673C62.0819 8.88325 61.5104 7.45349 60.477 6.38827V6.38827Z" fill="#FE3078"/>
<path d="M9.78202 8.31402H6.67009C6.55853 7.66228 5.81284 7.26302 4.87339 7.26302C3.93394 7.26302 3.18826 7.63292 3.18826 8.07916C3.18826 8.5254 3.89284 8.86008 5.70716 9.14779C8.84257 9.62338 9.96404 10.6509 9.96404 12.4828C9.96404 14.6553 7.68 16.0058 4.98495 16.0058C2.28991 16.0058 0.105688 14.6201 0 12.3948H3.1178C3.22349 13.0817 4.02202 13.5338 5.0378 13.5338C6.05358 13.5338 6.82862 13.1522 6.82862 12.6648C6.82862 12.1775 6.10642 11.8311 4.2745 11.561C1.76147 11.1559 0.0704587 10.3984 0.0704587 8.22008C0.0704587 6.17678 2.23119 4.87329 4.92624 4.87329C7.62128 4.87329 9.65872 6.21201 9.78202 8.31402Z" fill="white"/>
<path d="M18.2664 7.89706H16.1644V15.7473H12.9174V7.89706H10.833V5.12568H12.9174V1.97266H16.1468V5.12568H18.2488L18.2664 7.89706Z" fill="white"/>
<path d="M19.6052 11.2674V5.12573H22.8287V10.7272C22.8287 12.336 23.4805 13.2285 24.6959 13.2285C25.9113 13.2285 26.7274 12.2303 26.7274 10.5804V5.12573H29.945V15.7474H26.7274V14.6788C26.3793 15.128 25.9266 15.4853 25.4088 15.7197C24.8909 15.954 24.3237 16.0583 23.7564 16.0233C21.2904 15.9999 19.6052 14.2032 19.6052 11.2674Z" fill="white"/>
<path d="M31.8357 10.4337C31.8357 7.21017 33.9553 4.87329 37.0027 4.87329C37.5801 4.8341 38.1584 4.93542 38.688 5.16857C39.2177 5.40171 39.683 5.75974 40.0441 6.212V0.522461H43.2676V15.7474H40.0441V14.6788C39.68 15.1295 39.212 15.4852 38.6802 15.7153C38.1484 15.9454 37.5687 16.0431 36.9909 15.9999C33.9553 15.9999 31.8357 13.663 31.8357 10.4337ZM40.097 10.4337C40.097 8.80723 39.0812 7.63292 37.5076 7.63292C35.934 7.63292 34.9887 8.80723 34.9887 10.4395C34.9887 12.0718 35.9693 13.252 37.5076 13.252C39.046 13.252 40.097 12.0659 40.097 10.4337V10.4337Z" fill="white"/>
<path d="M49.2858 1.97277C49.3004 2.2413 49.2602 2.50999 49.1675 2.76244C49.0748 3.01488 48.9317 3.24579 48.7468 3.44106C48.5619 3.63632 48.3391 3.79185 48.0921 3.89813C47.845 4.00442 47.5789 4.05924 47.31 4.05924C47.0411 4.05924 46.775 4.00442 46.528 3.89813C46.2809 3.79185 46.0582 3.63632 45.8733 3.44106C45.6884 3.24579 45.5452 3.01488 45.4525 2.76244C45.3598 2.50999 45.3196 2.2413 45.3342 1.97277C45.3618 1.46739 45.582 0.991781 45.9495 0.643769C46.317 0.295758 46.8039 0.101807 47.31 0.101807C47.8161 0.101807 48.303 0.295758 48.6706 0.643769C49.0381 0.991781 49.2582 1.46739 49.2858 1.97277V1.97277ZM48.9218 15.7827H45.6983V5.1258H48.9218V15.7827Z" fill="white"/>
<path d="M71.815 13.1697V15.7473H64V13.1697H71.815Z" fill="white"/>
<path d="M74.2517 0.522461H77.5046V6.212C77.8499 5.76892 78.2972 5.41582 78.8083 5.18274C79.3195 4.94966 79.8793 4.84349 80.4403 4.87329C82.9064 4.87329 84.5915 6.66998 84.5915 9.59989V15.7474H81.368V10.1459C81.368 8.53127 80.7104 7.64466 79.5009 7.64466C78.2913 7.64466 77.5046 8.64283 77.5046 10.2927V15.7474H74.2811L74.2517 0.522461Z" fill="white"/>
<path d="M102.805 5.12573L99.2294 15.7474H95.9882L94.0683 9.67619L92.1835 15.7474H88.96L85.4136 5.12573H88.8191L90.7038 11.9602L92.5534 5.12573H95.8473L97.7145 11.9955L99.5993 5.12573H102.805Z" fill="white"/>
<path d="M103.263 10.4337C103.263 7.21024 105.383 4.87336 108.424 4.87336C109.002 4.83317 109.58 4.93403 110.11 5.16725C110.64 5.40047 111.105 5.75905 111.466 6.21208V5.12584H114.695V15.7475H111.466V14.6789C111.106 15.1326 110.641 15.492 110.111 15.7262C109.581 15.9604 109.002 16.0624 108.424 16.0235C105.383 16 103.263 13.6631 103.263 10.4337ZM111.524 10.4337C111.524 8.8073 110.509 7.62712 108.929 7.62712C107.35 7.62712 106.416 8.80143 106.416 10.4337C106.416 12.066 107.391 13.2462 108.929 13.2462C110.468 13.2462 111.524 12.066 111.524 10.4337Z" fill="white"/>
<path d="M117.12 5.12586H120.367V6.2121C120.712 5.76827 121.159 5.41462 121.67 5.18146C122.181 4.94831 122.742 4.84259 123.303 4.87339C123.774 4.84912 124.245 4.9108 124.694 5.0554L124.735 8.07926C124.222 7.83074 123.656 7.70798 123.085 7.72109C121.365 7.72109 120.332 8.69577 120.332 10.3104V15.7475H117.102L117.12 5.12586Z" fill="white"/>
<path d="M126.291 5.12579H129.515V6.21203C129.864 5.76387 130.317 5.40766 130.834 5.17435C131.352 4.94105 131.919 4.83771 132.486 4.87332C132.959 4.84899 133.432 4.91066 133.883 5.05534L133.918 8.07919C133.405 7.83003 132.839 7.70723 132.269 7.72102C130.548 7.72102 129.515 8.6957 129.515 10.3104V15.7474H126.291V5.12579Z" fill="white"/>
</g>
<defs>
<clipPath id="clip0">
<rect width="133.919" height="16" fill="white"/>
</clipPath>
</defs>
</svg>
